<?xml version="1.0" standalone="no"?>
<!DOCTYPE svg PUBLIC "-//W3C//DTD SVG 20010904//EN"
 "http://www.w3.org/TR/2001/REC-SVG-20010904/DTD/svg10.dtd">
<svg version="1.0" xmlns="http://www.w3.org/2000/svg"
 width="99.000000pt" height="70.000000pt" viewBox="0 0 99.000000 70.000000"
 preserveAspectRatio="xMidYMid meet">

<g transform="translate(0.000000,70.000000) scale(0.100000,-0.100000)"
fill="#000000" stroke="none">
<path d="M626 593 c-4 -4 -26 -8 -49 -8 -45 0 -63 -18 -25 -23 39 -6 51 -22
32 -43 -17 -19 -22 -107 -9 -149 5 -17 0 -23 -29 -35 -46 -19 -46 -19 -46 10
0 39 -27 83 -60 100 -39 20 -311 18 -318 -2 -3 -10 14 -13 62 -13 63 0 88 -14
49 -26 -51 -16 -49 -15 -32 -26 13 -9 14 -17 5 -50 -7 -28 -7 -41 0 -46 6 -4
19 -21 28 -39 38 -75 134 -71 166 7 9 23 19 30 39 30 15 0 53 7 84 15 52 14
59 13 77 -2 11 -10 20 -26 20 -36 0 -10 11 -29 25 -42 32 -33 84 -33 121 -2
23 20 27 32 30 84 2 55 -1 64 -24 86 -33 30 -63 38 -105 26 -28 -7 -30 -7 -14
5 17 13 17 16 -2 72 l-20 59 22 5 c13 4 23 15 25 28 3 17 -2 22 -21 22 -13 0
-27 -3 -31 -7z m41 -25 c-3 -8 -6 -5 -6 6 -1 11 2 17 5 13 3 -3 4 -12 1 -19z
m-255 -148 c41 -12 61 -49 47 -88 -8 -21 -13 -22 -118 -22 l-110 0 10 29 c16
47 62 79 129 90 3 1 21 -4 42 -9z m352 -116 c17 -46 -10 -84 -60 -84 -25 0
-38 7 -50 25 -22 34 -13 51 33 63 55 15 70 14 77 -4z m-466 -36 c9 -9 17 -8
37 2 37 20 55 0 26 -29 -28 -28 -75 -28 -95 1 -23 33 3 55 32 26z"/>
<path d="M685 290 c-9 -15 4 -30 26 -30 12 0 19 7 19 20 0 21 -33 29 -45 10z"/>
<path d="M330 550 c0 -5 -6 -10 -14 -10 -16 0 -46 -37 -46 -55 0 -7 28 -12 75
-13 68 -2 75 0 75 18 0 10 -15 30 -33 44 -35 27 -57 33 -57 16z"/>
<path d="M157 394 c-8 -8 1 -24 14 -24 5 0 9 7 9 15 0 15 -12 20 -23 9z"/>
<path d="M565 113 c-4 -21 -9 -46 -12 -55 -2 -10 0 -18 6 -18 11 0 17 16 27
73 4 24 2 37 -4 37 -6 0 -14 -17 -17 -37z"/>
<path d="M380 121 c0 -10 -3 -33 -6 -50 -6 -30 -5 -31 29 -31 40 0 60 19 60
56 0 31 -17 44 -55 44 -21 0 -28 -5 -28 -19z m60 -26 c0 -14 -8 -29 -21 -35
-27 -15 -31 -10 -23 28 8 40 44 46 44 7z"/>
<path d="M610 130 c0 -5 5 -10 10 -10 6 0 10 5 10 10 0 6 -4 10 -10 10 -5 0
-10 -4 -10 -10z"/>
<path d="M480 91 c-18 -35 10 -70 41 -50 11 7 11 9 -3 9 -10 0 -18 5 -18 10 0
6 9 10 20 10 13 0 20 7 20 20 0 27 -45 27 -60 1z m40 -1 c0 -5 -5 -10 -11 -10
-5 0 -7 5 -4 10 3 6 8 10 11 10 2 0 4 -4 4 -10z"/>
<path d="M600 91 c0 -11 -3 -27 -7 -37 -4 -12 -2 -15 8 -12 19 6 31 68 13 68
-8 0 -14 -9 -14 -19z"/>
<path d="M640 91 c0 -58 29 -67 53 -16 19 39 8 47 -16 13 l-16 -23 0 23 c-1
27 -21 30 -21 3z"/>
<path d="M720 89 c-16 -30 -5 -49 27 -48 17 1 21 3 11 6 -24 6 -23 19 2 26 11
3 20 12 20 21 0 24 -47 20 -60 -5z m40 1 c0 -5 -4 -10 -10 -10 -5 0 -10 5 -10
10 0 6 5 10 10 10 6 0 10 -4 10 -10z"/>
<path d="M796 88 c-8 -32 -7 -48 3 -48 5 0 12 11 15 25 4 14 11 25 16 25 6 0
10 5 10 10 0 20 -38 10 -44 -12z"/>
<path d="M861 78 c7 -24 5 -36 -7 -49 -8 -9 -11 -20 -6 -23 11 -7 34 18 56 61
18 36 19 43 8 43 -5 0 -14 -10 -20 -22 l-11 -23 0 23 c-1 12 -7 22 -15 22 -12
0 -13 -7 -5 -32z"/>
</g>
</svg>
