<?xml version="1.0" encoding="UTF-8"?>
<!DOCTYPE svg PUBLIC "-//W3C//DTD SVG 1.1//EN" "http://www.w3.org/Graphics/SVG/1.1/DTD/svg11.dtd">
<svg xmlns="http://www.w3.org/2000/svg" version="1.1" width="20px" height="20px" style="shape-rendering:geometricPrecision; text-rendering:geometricPrecision; image-rendering:optimizeQuality; fill-rule:evenodd; clip-rule:evenodd" xmlns:xlink="http://www.w3.org/1999/xlink">
<g><path style="opacity:0.884" fill="#2ca8e8" d="M 4.5,-0.5 C 7.83333,-0.5 11.1667,-0.5 14.5,-0.5C 16.5,0.833333 18.1667,2.5 19.5,4.5C 19.5,5.83333 19.5,7.16667 19.5,8.5C 17.4458,8.63466 15.7791,7.96799 14.5,6.5C 13.5,5.16667 12.5,5.16667 11.5,6.5C 8.6991,7.37741 6.03243,8.54408 3.5,10C 5.23501,10.6514 6.90167,10.4847 8.5,9.5C 9.08703,10.2334 9.08703,11.2334 8.5,12.5C 6.6208,11.6586 4.6208,11.3253 2.5,11.5C 2.59829,8.75236 1.59829,8.0857 -0.5,9.5C -0.5,7.83333 -0.5,6.16667 -0.5,4.5C 0.833333,2.5 2.5,0.833333 4.5,-0.5 Z"/></g>
<g><path style="opacity:1" fill="#a0d7f3" d="M 11.5,6.5 C 12.5,5.16667 13.5,5.16667 14.5,6.5C 14.6716,7.49162 14.3382,8.15829 13.5,8.5C 13.5,7.16667 12.8333,6.5 11.5,6.5 Z"/></g>
<g><path style="opacity:1" fill="#e4f3fb" d="M 11.5,6.5 C 12.8333,6.5 13.5,7.16667 13.5,8.5C 14.3901,13.9791 12.7234,15.3124 8.5,12.5C 9.08703,11.2334 9.08703,10.2334 8.5,9.5C 6.90167,10.4847 5.23501,10.6514 3.5,10C 6.03243,8.54408 8.6991,7.37741 11.5,6.5 Z"/></g>
<g><path style="opacity:0.885" fill="#26a1de" d="M 14.5,6.5 C 15.7791,7.96799 17.4458,8.63466 19.5,8.5C 19.5,10.5 19.5,12.5 19.5,14.5C 18.1667,16.5 16.5,18.1667 14.5,19.5C 11.1667,19.5 7.83333,19.5 4.5,19.5C 2.5,18.1667 0.833333,16.5 -0.5,14.5C -0.5,12.8333 -0.5,11.1667 -0.5,9.5C 1.59829,8.0857 2.59829,8.75236 2.5,11.5C 4.6208,11.3253 6.6208,11.6586 8.5,12.5C 12.7234,15.3124 14.3901,13.9791 13.5,8.5C 14.3382,8.15829 14.6716,7.49162 14.5,6.5 Z"/></g>
</svg>
